<?xml version="1.0" encoding="UTF-8"?>
<svg width="2421px" height="430px" viewBox="0 0 2421 430" version="1.1" xmlns="http://www.w3.org/2000/svg" xmlns:xlink="http://www.w3.org/1999/xlink">
    <!-- Generator: Sketch 46.2 (44496) - http://www.bohemiancoding.com/sketch -->
    <title>Lamborghini Parallax@2x</title>
    <desc>Created with Sketch.</desc>
    <defs></defs>
    <g id="Page-1" stroke="none" stroke-width="1" fill="none" fill-rule="evenodd">
        <path d="M0,424.8 L174.6,424.8 L174.6,364.8 L66,364.8 L66,4.8 L0,4.8 L0,424.8 Z M349.8,4.8 L417,424.8 L350.4,424.8 L339,348.6 L258,348.6 L246.6,424.8 L186,424.8 L253.2,4.8 L349.8,4.8 Z M298.2,79.2 L266.4,291.6 L330,291.6 L298.2,79.2 Z M538.8,4.8 L447,4.8 L447,424.8 L504.6,424.8 L504.6,127.8 L553.8,424.8 L616.2,424.8 L661.8,123.6 L661.8,424.8 L724.2,424.8 L724.2,4.8 L632.4,4.8 L587.4,303 L538.8,4.8 Z M871.8,4.8 C940.2,4.8 969.6,36.6 969.6,101.4 L969.6,116.4 C969.6,159.6 956.4,187.2 927,201 C962.4,214.8 976.2,246.6 976.2,291 L976.2,325.2 C976.2,390 942,424.8 876,424.8 L772.2,424.8 L772.2,4.8 L871.8,4.8 Z M867.6,235.8 L838.2,235.8 L838.2,364.8 L876,364.8 C898.2,364.8 910.2,354.6 910.2,323.4 L910.2,286.8 C910.2,247.8 897.6,235.8 867.6,235.8 Z M870,64.8 L838.2,64.8 L838.2,175.8 L864,175.8 C888.6,175.8 903.6,165 903.6,131.4 L903.6,108 C903.6,78 893.4,64.8 870,64.8 Z M1076.4,101.4 L1076.4,328.2 C1076.4,358.2 1089.6,369.6 1110.6,369.6 C1131.6,369.6 1144.8,358.2 1144.8,328.2 L1144.8,101.4 C1144.8,71.4 1131.6,60 1110.6,60 C1089.6,60 1076.4,71.4 1076.4,101.4 Z M1010.4,324 L1010.4,105.6 C1010.4,38.4 1045.8,2.84217094e-13 1110.6,2.84217094e-13 C1175.4,2.84217094e-13 1210.8,38.4 1210.8,105.6 L1210.8,324 C1210.8,391.2 1175.4,429.6 1110.6,429.6 C1045.8,429.6 1010.4,391.2 1010.4,324 Z M1458.6,424.8 L1391.4,424.8 C1387.8,414 1385.4,407.4 1385.4,373.2 L1385.4,307.2 C1385.4,268.2 1372.2,253.8 1342.2,253.8 L1319.4,253.8 L1319.4,424.8 L1253.4,424.8 L1253.4,4.8 L1353,4.8 C1421.4,4.8 1450.8,36.6 1450.8,101.4 L1450.8,134.4 C1450.8,177.6 1437,205.8 1407.6,219.6 C1440.6,233.4 1451.4,265.2 1451.4,309 L1451.4,373.8 C1451.4,394.2 1452,409.2 1458.6,424.8 Z M1351.2,64.8 L1319.4,64.8 L1319.4,193.8 L1345.2,193.8 C1369.8,193.8 1384.8,183 1384.8,149.4 L1384.8,108 C1384.8,78 1374.6,64.8 1351.2,64.8 Z M1593.6,250.8 L1623.6,250.8 L1623.6,328.2 C1623.6,358.2 1610.4,369 1589.4,369 C1568.4,369 1555.2,358.2 1555.2,328.2 L1555.2,101.4 C1555.2,71.4 1568.4,60 1589.4,60 C1610.4,60 1623.6,71.4 1623.6,101.4 L1623.6,146.4 L1686,146.4 L1686,105.6 C1686,38.4 1652.4,2.84217094e-13 1587.6,2.84217094e-13 C1522.8,2.84217094e-13 1489.2,38.4 1489.2,105.6 L1489.2,324 C1489.2,391.2 1522.8,429.6 1587.6,429.6 C1652.4,429.6 1686,391.2 1686,324 L1686,190.8 L1593.6,190.8 L1593.6,250.8 Z M1794.6,244.8 L1869.6,244.8 L1869.6,424.8 L1936.8,424.8 L1936.8,4.8 L1869.6,4.8 L1869.6,184.8 L1794.6,184.8 L1794.6,4.8 L1728.6,4.8 L1728.6,424.8 L1794.6,424.8 L1794.6,244.8 Z M1984.8,424.8 L2050.8,424.8 L2050.8,4.8 L1984.8,4.8 L1984.8,424.8 Z M2239.8,424.8 L2307.6,424.8 L2307.6,4.8 L2248.8,4.8 L2248.8,256.2 L2181,4.8 L2098.2,4.8 L2098.2,424.8 L2157.6,424.8 L2157.6,120.6 L2239.8,424.8 Z M2355,424.8 L2421,424.8 L2421,4.8 L2355,4.8 L2355,424.8 Z" id="Lamborghini-Parallax" fill="rgba(255, 255, 255, .07)" transform="translate(1210.500000, 214.800000) rotate(-360.000000) translate(-1210.500000, -214.800000) "></path>
    </g>
</svg>